<?xml version="1.0" encoding="UTF-8" standalone="no"?>
<!DOCTYPE svg PUBLIC "-//W3C//DTD SVG 1.1//EN"
 "http://www.w3.org/Graphics/SVG/1.1/DTD/svg11.dtd">
<!-- Generated by graphviz version 2.38.0 (20140413.2041)
 -->
<!-- Title: snakemake_dag Pages: 1 -->
<svg width="872pt" height="431pt"
 viewBox="0.00 0.00 872.00 431.00" xmlns="http://www.w3.org/2000/svg" xmlns:xlink="http://www.w3.org/1999/xlink">
<g id="graph0" class="graph" transform="scale(1 1) rotate(0) translate(4 427)">
<title>snakemake_dag</title>
<polygon fill="white" stroke="none" points="-4,4 -4,-427 868,-427 868,4 -4,4"/>
<!-- 0 -->
<g id="node1" class="node"><title>0</title>
<path fill="none" stroke="#56d873" stroke-width="2" d="M455.5,-36C455.5,-36 425.5,-36 425.5,-36 419.5,-36 413.5,-30 413.5,-24 413.5,-24 413.5,-12 413.5,-12 413.5,-6 419.5,-0 425.5,-0 425.5,-0 455.5,-0 455.5,-0 461.5,-0 467.5,-6 467.5,-12 467.5,-12 467.5,-24 467.5,-24 467.5,-30 461.5,-36 455.5,-36"/>
<text text-anchor="middle" x="440.5" y="-15.5" font-family="sans" font-size="10.00">all</text>
</g>
<!-- 1 -->
<g id="node2" class="node"><title>1</title>
<path fill="none" stroke="#70d856" stroke-width="2" d="M525,-108C525,-108 356,-108 356,-108 350,-108 344,-102 344,-96 344,-96 344,-84 344,-84 344,-78 350,-72 356,-72 356,-72 525,-72 525,-72 531,-72 537,-78 537,-84 537,-84 537,-96 537,-96 537,-102 531,-108 525,-108"/>
<text text-anchor="middle" x="440.5" y="-87.5" font-family="sans" font-size="10.00">sequenza_merge_filtered_segments</text>
</g>
<!-- 1&#45;&gt;0 -->
<g id="edge1" class="edge"><title>1&#45;&gt;0</title>
<path fill="none" stroke="grey" stroke-width="2" d="M440.5,-71.6966C440.5,-63.9827 440.5,-54.7125 440.5,-46.1124"/>
<polygon fill="grey" stroke="grey" stroke-width="2" points="444,-46.1043 440.5,-36.1043 437,-46.1044 444,-46.1043"/>
</g>
<!-- 2 -->
<g id="node3" class="node"><title>2</title>
<path fill="none" stroke="#d85656" stroke-width="2" d="M652,-252C652,-252 609,-252 609,-252 603,-252 597,-246 597,-240 597,-240 597,-228 597,-228 597,-222 603,-216 609,-216 609,-216 652,-216 652,-216 658,-216 664,-222 664,-228 664,-228 664,-240 664,-240 664,-246 658,-252 652,-252"/>
<text text-anchor="middle" x="630.5" y="-231.5" font-family="sans" font-size="10.00">filter_seqz</text>
</g>
<!-- 2&#45;&gt;0 -->
<g id="edge2" class="edge"><title>2&#45;&gt;0</title>
<path fill="none" stroke="grey" stroke-width="2" d="M628.762,-215.692C626.475,-197.322 621.509,-167.729 611.5,-144 596.553,-108.564 593.043,-96.6235 563.5,-72 538.349,-51.0375 503.654,-37.1007 477.523,-28.8028"/>
<polygon fill="grey" stroke="grey" stroke-width="2" points="478.197,-25.3498 467.612,-25.7932 476.163,-32.0478 478.197,-25.3498"/>
</g>
<!-- 5 -->
<g id="node6" class="node"><title>5</title>
<path fill="none" stroke="#d8cb56" stroke-width="2" d="M591,-180C591,-180 466,-180 466,-180 460,-180 454,-174 454,-168 454,-168 454,-156 454,-156 454,-150 460,-144 466,-144 466,-144 591,-144 591,-144 597,-144 603,-150 603,-156 603,-156 603,-168 603,-168 603,-174 597,-180 591,-180"/>
<text text-anchor="middle" x="528.5" y="-159.5" font-family="sans" font-size="10.00">filtered_sequenza_analysis</text>
</g>
<!-- 2&#45;&gt;5 -->
<g id="edge11" class="edge"><title>2&#45;&gt;5</title>
<path fill="none" stroke="grey" stroke-width="2" d="M605.548,-215.876C592.458,-206.893 576.24,-195.763 562.064,-186.034"/>
<polygon fill="grey" stroke="grey" stroke-width="2" points="563.774,-182.962 553.548,-180.19 559.813,-188.734 563.774,-182.962"/>
</g>
<!-- 3 -->
<g id="node4" class="node"><title>3</title>
<path fill="none" stroke="#d8cb56" stroke-width="2" d="M415,-180C415,-180 290,-180 290,-180 284,-180 278,-174 278,-168 278,-168 278,-156 278,-156 278,-150 284,-144 290,-144 290,-144 415,-144 415,-144 421,-144 427,-150 427,-156 427,-156 427,-168 427,-168 427,-174 421,-180 415,-180"/>
<text text-anchor="middle" x="352.5" y="-159.5" font-family="sans" font-size="10.00">filtered_sequenza_analysis</text>
</g>
<!-- 3&#45;&gt;0 -->
<g id="edge3" class="edge"><title>3&#45;&gt;0</title>
<path fill="none" stroke="grey" stroke-width="2" d="M342.289,-143.988C332.395,-125.074 320.742,-94.2604 334.5,-72 349.521,-47.6954 379.437,-34.1635 403.667,-26.8687"/>
<polygon fill="grey" stroke="grey" stroke-width="2" points="404.604,-30.2411 413.305,-24.1968 402.734,-23.4956 404.604,-30.2411"/>
</g>
<!-- 3&#45;&gt;1 -->
<g id="edge7" class="edge"><title>3&#45;&gt;1</title>
<path fill="none" stroke="grey" stroke-width="2" d="M374.253,-143.697C385.336,-134.881 398.974,-124.032 410.99,-114.474"/>
<polygon fill="grey" stroke="grey" stroke-width="2" points="413.35,-117.069 418.997,-108.104 408.993,-111.59 413.35,-117.069"/>
</g>
<!-- 4 -->
<g id="node5" class="node"><title>4</title>
<path fill="none" stroke="#d85656" stroke-width="2" d="M272,-252C272,-252 229,-252 229,-252 223,-252 217,-246 217,-240 217,-240 217,-228 217,-228 217,-222 223,-216 229,-216 229,-216 272,-216 272,-216 278,-216 284,-222 284,-228 284,-228 284,-240 284,-240 284,-246 278,-252 272,-252"/>
<text text-anchor="middle" x="250.5" y="-231.5" font-family="sans" font-size="10.00">filter_seqz</text>
</g>
<!-- 4&#45;&gt;0 -->
<g id="edge4" class="edge"><title>4&#45;&gt;0</title>
<path fill="none" stroke="grey" stroke-width="2" d="M251.625,-215.882C253.361,-197.414 257.715,-167.497 268.5,-144 285.411,-107.156 292.703,-97.1479 324.5,-72 348.158,-53.2888 379.486,-39.4832 403.622,-30.6609"/>
<polygon fill="grey" stroke="grey" stroke-width="2" points="404.884,-33.927 413.149,-27.2983 402.554,-27.326 404.884,-33.927"/>
</g>
<!-- 4&#45;&gt;3 -->
<g id="edge9" class="edge"><title>4&#45;&gt;3</title>
<path fill="none" stroke="grey" stroke-width="2" d="M275.452,-215.876C288.542,-206.893 304.76,-195.763 318.936,-186.034"/>
<polygon fill="grey" stroke="grey" stroke-width="2" points="321.187,-188.734 327.452,-180.19 317.226,-182.962 321.187,-188.734"/>
</g>
<!-- 5&#45;&gt;0 -->
<g id="edge5" class="edge"><title>5&#45;&gt;0</title>
<path fill="none" stroke="grey" stroke-width="2" d="M538.401,-143.98C547.975,-125.059 559.186,-94.2391 545.5,-72 530.798,-48.1098 501.639,-34.5976 477.772,-27.2047"/>
<polygon fill="grey" stroke="grey" stroke-width="2" points="478.501,-23.7733 467.925,-24.3986 476.583,-30.5053 478.501,-23.7733"/>
</g>
<!-- 5&#45;&gt;1 -->
<g id="edge6" class="edge"><title>5&#45;&gt;1</title>
<path fill="none" stroke="grey" stroke-width="2" d="M506.747,-143.697C495.664,-134.881 482.026,-124.032 470.01,-114.474"/>
<polygon fill="grey" stroke="grey" stroke-width="2" points="472.007,-111.59 462.003,-108.104 467.65,-117.069 472.007,-111.59"/>
</g>
<!-- 6 -->
<g id="node7" class="node"><title>6</title>
<path fill="none" stroke="#d88d56" stroke-width="2" d="M673.5,-324C673.5,-324 621.5,-324 621.5,-324 615.5,-324 609.5,-318 609.5,-312 609.5,-312 609.5,-300 609.5,-300 609.5,-294 615.5,-288 621.5,-288 621.5,-288 673.5,-288 673.5,-288 679.5,-288 685.5,-294 685.5,-300 685.5,-300 685.5,-312 685.5,-312 685.5,-318 679.5,-324 673.5,-324"/>
<text text-anchor="middle" x="647.5" y="-303.5" font-family="sans" font-size="10.00">merge_seqz</text>
</g>
<!-- 6&#45;&gt;2 -->
<g id="edge8" class="edge"><title>6&#45;&gt;2</title>
<path fill="none" stroke="grey" stroke-width="2" d="M643.298,-287.697C641.404,-279.898 639.123,-270.509 637.016,-261.829"/>
<polygon fill="grey" stroke="grey" stroke-width="2" points="640.415,-260.996 634.654,-252.104 633.613,-262.648 640.415,-260.996"/>
</g>
<!-- 7 -->
<g id="node8" class="node"><title>7</title>
<path fill="none" stroke="#d88d56" stroke-width="2" d="M241.5,-324C241.5,-324 189.5,-324 189.5,-324 183.5,-324 177.5,-318 177.5,-312 177.5,-312 177.5,-300 177.5,-300 177.5,-294 183.5,-288 189.5,-288 189.5,-288 241.5,-288 241.5,-288 247.5,-288 253.5,-294 253.5,-300 253.5,-300 253.5,-312 253.5,-312 253.5,-318 247.5,-324 241.5,-324"/>
<text text-anchor="middle" x="215.5" y="-303.5" font-family="sans" font-size="10.00">merge_seqz</text>
</g>
<!-- 7&#45;&gt;4 -->
<g id="edge10" class="edge"><title>7&#45;&gt;4</title>
<path fill="none" stroke="grey" stroke-width="2" d="M224.152,-287.697C228.136,-279.728 232.95,-270.1 237.368,-261.264"/>
<polygon fill="grey" stroke="grey" stroke-width="2" points="240.606,-262.614 241.948,-252.104 234.345,-259.483 240.606,-262.614"/>
</g>
<!-- 8 -->
<g id="node9" class="node"><title>8</title>
<path fill="none" stroke="#afd856" stroke-width="2" d="M558,-423C558,-423 453,-423 453,-423 447,-423 441,-417 441,-411 441,-411 441,-372 441,-372 441,-366 447,-360 453,-360 453,-360 558,-360 558,-360 564,-360 570,-366 570,-372 570,-372 570,-411 570,-411 570,-417 564,-423 558,-423"/>
<text text-anchor="middle" x="505.5" y="-411" font-family="sans" font-size="10.00">run_bam2seqz_per_chr</text>
<text text-anchor="middle" x="505.5" y="-400" font-family="sans" font-size="10.00">chr: chr1</text>
<text text-anchor="middle" x="505.5" y="-389" font-family="sans" font-size="10.00">normal: N</text>
<text text-anchor="middle" x="505.5" y="-378" font-family="sans" font-size="10.00">patient_id: 201022</text>
<text text-anchor="middle" x="505.5" y="-367" font-family="sans" font-size="10.00">tumour: T</text>
</g>
<!-- 8&#45;&gt;6 -->
<g id="edge12" class="edge"><title>8&#45;&gt;6</title>
<path fill="none" stroke="grey" stroke-width="2" d="M557.569,-359.882C574.773,-349.766 593.576,-338.709 609.521,-329.333"/>
<polygon fill="grey" stroke="grey" stroke-width="2" points="611.699,-332.112 618.545,-324.026 608.151,-326.078 611.699,-332.112"/>
</g>
<!-- 9 -->
<g id="node10" class="node"><title>9</title>
<path fill="none" stroke="#afd856" stroke-width="2" d="M705,-423C705,-423 600,-423 600,-423 594,-423 588,-417 588,-411 588,-411 588,-372 588,-372 588,-366 594,-360 600,-360 600,-360 705,-360 705,-360 711,-360 717,-366 717,-372 717,-372 717,-411 717,-411 717,-417 711,-423 705,-423"/>
<text text-anchor="middle" x="652.5" y="-411" font-family="sans" font-size="10.00">run_bam2seqz_per_chr</text>
<text text-anchor="middle" x="652.5" y="-400" font-family="sans" font-size="10.00">chr: chr2</text>
<text text-anchor="middle" x="652.5" y="-389" font-family="sans" font-size="10.00">normal: N</text>
<text text-anchor="middle" x="652.5" y="-378" font-family="sans" font-size="10.00">patient_id: 201022</text>
<text text-anchor="middle" x="652.5" y="-367" font-family="sans" font-size="10.00">tumour: T</text>
</g>
<!-- 9&#45;&gt;6 -->
<g id="edge13" class="edge"><title>9&#45;&gt;6</title>
<path fill="none" stroke="grey" stroke-width="2" d="M650.667,-359.882C650.163,-351.467 649.62,-342.402 649.128,-334.195"/>
<polygon fill="grey" stroke="grey" stroke-width="2" points="652.611,-333.799 648.52,-324.026 645.624,-334.218 652.611,-333.799"/>
</g>
<!-- 10 -->
<g id="node11" class="node"><title>10</title>
<path fill="none" stroke="#afd856" stroke-width="2" d="M852,-423C852,-423 747,-423 747,-423 741,-423 735,-417 735,-411 735,-411 735,-372 735,-372 735,-366 741,-360 747,-360 747,-360 852,-360 852,-360 858,-360 864,-366 864,-372 864,-372 864,-411 864,-411 864,-417 858,-423 852,-423"/>
<text text-anchor="middle" x="799.5" y="-411" font-family="sans" font-size="10.00">run_bam2seqz_per_chr</text>
<text text-anchor="middle" x="799.5" y="-400" font-family="sans" font-size="10.00">chr: chr3</text>
<text text-anchor="middle" x="799.5" y="-389" font-family="sans" font-size="10.00">normal: N</text>
<text text-anchor="middle" x="799.5" y="-378" font-family="sans" font-size="10.00">patient_id: 201022</text>
<text text-anchor="middle" x="799.5" y="-367" font-family="sans" font-size="10.00">tumour: T</text>
</g>
<!-- 10&#45;&gt;6 -->
<g id="edge14" class="edge"><title>10&#45;&gt;6</title>
<path fill="none" stroke="grey" stroke-width="2" d="M743.764,-359.882C725.177,-349.671 704.845,-338.502 687.676,-329.07"/>
<polygon fill="grey" stroke="grey" stroke-width="2" points="688.944,-325.774 678.494,-324.026 685.574,-331.909 688.944,-325.774"/>
</g>
<!-- 11 -->
<g id="node12" class="node"><title>11</title>
<path fill="none" stroke="#afd856" stroke-width="2" d="M117,-423C117,-423 12,-423 12,-423 6,-423 0,-417 0,-411 0,-411 0,-372 0,-372 0,-366 6,-360 12,-360 12,-360 117,-360 117,-360 123,-360 129,-366 129,-372 129,-372 129,-411 129,-411 129,-417 123,-423 117,-423"/>
<text text-anchor="middle" x="64.5" y="-411" font-family="sans" font-size="10.00">run_bam2seqz_per_chr</text>
<text text-anchor="middle" x="64.5" y="-400" font-family="sans" font-size="10.00">chr: chr3</text>
<text text-anchor="middle" x="64.5" y="-389" font-family="sans" font-size="10.00">normal: N</text>
<text text-anchor="middle" x="64.5" y="-378" font-family="sans" font-size="10.00">patient_id: 101022</text>
<text text-anchor="middle" x="64.5" y="-367" font-family="sans" font-size="10.00">tumour: T</text>
</g>
<!-- 11&#45;&gt;7 -->
<g id="edge15" class="edge"><title>11&#45;&gt;7</title>
<path fill="none" stroke="grey" stroke-width="2" d="M119.869,-359.882C138.334,-349.671 158.532,-338.502 175.588,-329.07"/>
<polygon fill="grey" stroke="grey" stroke-width="2" points="177.652,-331.929 184.71,-324.026 174.265,-325.803 177.652,-331.929"/>
</g>
<!-- 12 -->
<g id="node13" class="node"><title>12</title>
<path fill="none" stroke="#afd856" stroke-width="2" d="M264,-423C264,-423 159,-423 159,-423 153,-423 147,-417 147,-411 147,-411 147,-372 147,-372 147,-366 153,-360 159,-360 159,-360 264,-360 264,-360 270,-360 276,-366 276,-372 276,-372 276,-411 276,-411 276,-417 270,-423 264,-423"/>
<text text-anchor="middle" x="211.5" y="-411" font-family="sans" font-size="10.00">run_bam2seqz_per_chr</text>
<text text-anchor="middle" x="211.5" y="-400" font-family="sans" font-size="10.00">chr: chr1</text>
<text text-anchor="middle" x="211.5" y="-389" font-family="sans" font-size="10.00">normal: N</text>
<text text-anchor="middle" x="211.5" y="-378" font-family="sans" font-size="10.00">patient_id: 101022</text>
<text text-anchor="middle" x="211.5" y="-367" font-family="sans" font-size="10.00">tumour: T</text>
</g>
<!-- 12&#45;&gt;7 -->
<g id="edge16" class="edge"><title>12&#45;&gt;7</title>
<path fill="none" stroke="grey" stroke-width="2" d="M212.967,-359.882C213.37,-351.467 213.804,-342.402 214.197,-334.195"/>
<polygon fill="grey" stroke="grey" stroke-width="2" points="217.702,-334.183 214.684,-324.026 210.71,-333.847 217.702,-334.183"/>
</g>
<!-- 13 -->
<g id="node14" class="node"><title>13</title>
<path fill="none" stroke="#afd856" stroke-width="2" d="M411,-423C411,-423 306,-423 306,-423 300,-423 294,-417 294,-411 294,-411 294,-372 294,-372 294,-366 300,-360 306,-360 306,-360 411,-360 411,-360 417,-360 423,-366 423,-372 423,-372 423,-411 423,-411 423,-417 417,-423 411,-423"/>
<text text-anchor="middle" x="358.5" y="-411" font-family="sans" font-size="10.00">run_bam2seqz_per_chr</text>
<text text-anchor="middle" x="358.5" y="-400" font-family="sans" font-size="10.00">chr: chr2</text>
<text text-anchor="middle" x="358.5" y="-389" font-family="sans" font-size="10.00">normal: N</text>
<text text-anchor="middle" x="358.5" y="-378" font-family="sans" font-size="10.00">patient_id: 101022</text>
<text text-anchor="middle" x="358.5" y="-367" font-family="sans" font-size="10.00">tumour: T</text>
</g>
<!-- 13&#45;&gt;7 -->
<g id="edge17" class="edge"><title>13&#45;&gt;7</title>
<path fill="none" stroke="grey" stroke-width="2" d="M306.064,-359.882C288.577,-349.671 269.45,-338.502 253.297,-329.07"/>
<polygon fill="grey" stroke="grey" stroke-width="2" points="255.06,-326.047 244.659,-324.026 251.53,-332.091 255.06,-326.047"/>
</g>
</g>
</svg>
