<?xml version="1.0" encoding="UTF-8" standalone="no"?>
<!DOCTYPE svg PUBLIC "-//W3C//DTD SVG 1.1//EN"
 "http://www.w3.org/Graphics/SVG/1.1/DTD/svg11.dtd">
<!-- Generated by graphviz version 2.38.0 (20140413.2041)
 -->
<!-- Title: snakemake_dag Pages: 1 -->
<svg width="578pt" height="503pt"
 viewBox="0.00 0.00 578.00 503.00" xmlns="http://www.w3.org/2000/svg" xmlns:xlink="http://www.w3.org/1999/xlink">
<g id="graph0" class="graph" transform="scale(1 1) rotate(0) translate(4 499)">
<title>snakemake_dag</title>
<polygon fill="white" stroke="none" points="-4,4 -4,-499 574,-499 574,4 -4,4"/>
<!-- 0 -->
<g id="node1" class="node"><title>0</title>
<path fill="none" stroke="#56d86b" stroke-width="2" d="M299.5,-36C299.5,-36 269.5,-36 269.5,-36 263.5,-36 257.5,-30 257.5,-24 257.5,-24 257.5,-12 257.5,-12 257.5,-6 263.5,-0 269.5,-0 269.5,-0 299.5,-0 299.5,-0 305.5,-0 311.5,-6 311.5,-12 311.5,-12 311.5,-24 311.5,-24 311.5,-30 305.5,-36 299.5,-36"/>
<text text-anchor="middle" x="284.5" y="-15.5" font-family="sans" font-size="10.00">all</text>
</g>
<!-- 1 -->
<g id="node2" class="node"><title>1</title>
<path fill="none" stroke="#d88556" stroke-width="2" d="M369,-108C369,-108 200,-108 200,-108 194,-108 188,-102 188,-96 188,-96 188,-84 188,-84 188,-78 194,-72 200,-72 200,-72 369,-72 369,-72 375,-72 381,-78 381,-84 381,-84 381,-96 381,-96 381,-102 375,-108 369,-108"/>
<text text-anchor="middle" x="284.5" y="-87.5" font-family="sans" font-size="10.00">sequenza_merge_filtered_segments</text>
</g>
<!-- 1&#45;&gt;0 -->
<g id="edge1" class="edge"><title>1&#45;&gt;0</title>
<path fill="none" stroke="grey" stroke-width="2" d="M284.5,-71.6966C284.5,-63.9827 284.5,-54.7125 284.5,-46.1124"/>
<polygon fill="grey" stroke="grey" stroke-width="2" points="288,-46.1043 284.5,-36.1043 281,-46.1044 288,-46.1043"/>
</g>
<!-- 2 -->
<g id="node3" class="node"><title>2</title>
<path fill="none" stroke="#d85656" stroke-width="2" d="M264,-180C264,-180 139,-180 139,-180 133,-180 127,-174 127,-168 127,-168 127,-156 127,-156 127,-150 133,-144 139,-144 139,-144 264,-144 264,-144 270,-144 276,-150 276,-156 276,-156 276,-168 276,-168 276,-174 270,-180 264,-180"/>
<text text-anchor="middle" x="201.5" y="-159.5" font-family="sans" font-size="10.00">filtered_sequenza_analysis</text>
</g>
<!-- 2&#45;&gt;1 -->
<g id="edge2" class="edge"><title>2&#45;&gt;1</title>
<path fill="none" stroke="grey" stroke-width="2" d="M222.017,-143.697C232.369,-134.965 245.086,-124.24 256.339,-114.75"/>
<polygon fill="grey" stroke="grey" stroke-width="2" points="258.831,-117.227 264.219,-108.104 254.318,-111.876 258.831,-117.227"/>
</g>
<!-- 3 -->
<g id="node4" class="node"><title>3</title>
<path fill="none" stroke="#d85656" stroke-width="2" d="M431,-180C431,-180 306,-180 306,-180 300,-180 294,-174 294,-168 294,-168 294,-156 294,-156 294,-150 300,-144 306,-144 306,-144 431,-144 431,-144 437,-144 443,-150 443,-156 443,-156 443,-168 443,-168 443,-174 437,-180 431,-180"/>
<text text-anchor="middle" x="368.5" y="-159.5" font-family="sans" font-size="10.00">filtered_sequenza_analysis</text>
</g>
<!-- 3&#45;&gt;1 -->
<g id="edge3" class="edge"><title>3&#45;&gt;1</title>
<path fill="none" stroke="grey" stroke-width="2" d="M347.736,-143.697C337.259,-134.965 324.389,-124.24 313,-114.75"/>
<polygon fill="grey" stroke="grey" stroke-width="2" points="314.948,-111.817 305.025,-108.104 310.467,-117.195 314.948,-111.817"/>
</g>
<!-- 4 -->
<g id="node5" class="node"><title>4</title>
<path fill="none" stroke="#56d8c9" stroke-width="2" d="M223,-252C223,-252 180,-252 180,-252 174,-252 168,-246 168,-240 168,-240 168,-228 168,-228 168,-222 174,-216 180,-216 180,-216 223,-216 223,-216 229,-216 235,-222 235,-228 235,-228 235,-240 235,-240 235,-246 229,-252 223,-252"/>
<text text-anchor="middle" x="201.5" y="-231.5" font-family="sans" font-size="10.00">filter_seqz</text>
</g>
<!-- 4&#45;&gt;2 -->
<g id="edge4" class="edge"><title>4&#45;&gt;2</title>
<path fill="none" stroke="grey" stroke-width="2" d="M201.5,-215.697C201.5,-207.983 201.5,-198.712 201.5,-190.112"/>
<polygon fill="grey" stroke="grey" stroke-width="2" points="205,-190.104 201.5,-180.104 198,-190.104 205,-190.104"/>
</g>
<!-- 5 -->
<g id="node6" class="node"><title>5</title>
<path fill="none" stroke="#56d8c9" stroke-width="2" d="M390,-252C390,-252 347,-252 347,-252 341,-252 335,-246 335,-240 335,-240 335,-228 335,-228 335,-222 341,-216 347,-216 347,-216 390,-216 390,-216 396,-216 402,-222 402,-228 402,-228 402,-240 402,-240 402,-246 396,-252 390,-252"/>
<text text-anchor="middle" x="368.5" y="-231.5" font-family="sans" font-size="10.00">filter_seqz</text>
</g>
<!-- 5&#45;&gt;3 -->
<g id="edge5" class="edge"><title>5&#45;&gt;3</title>
<path fill="none" stroke="grey" stroke-width="2" d="M368.5,-215.697C368.5,-207.983 368.5,-198.712 368.5,-190.112"/>
<polygon fill="grey" stroke="grey" stroke-width="2" points="372,-190.104 368.5,-180.104 365,-190.104 372,-190.104"/>
</g>
<!-- 6 -->
<g id="node7" class="node"><title>6</title>
<path fill="none" stroke="#56d89a" stroke-width="2" d="M227.5,-324C227.5,-324 175.5,-324 175.5,-324 169.5,-324 163.5,-318 163.5,-312 163.5,-312 163.5,-300 163.5,-300 163.5,-294 169.5,-288 175.5,-288 175.5,-288 227.5,-288 227.5,-288 233.5,-288 239.5,-294 239.5,-300 239.5,-300 239.5,-312 239.5,-312 239.5,-318 233.5,-324 227.5,-324"/>
<text text-anchor="middle" x="201.5" y="-303.5" font-family="sans" font-size="10.00">merge_seqz</text>
</g>
<!-- 6&#45;&gt;4 -->
<g id="edge6" class="edge"><title>6&#45;&gt;4</title>
<path fill="none" stroke="grey" stroke-width="2" d="M201.5,-287.697C201.5,-279.983 201.5,-270.712 201.5,-262.112"/>
<polygon fill="grey" stroke="grey" stroke-width="2" points="205,-262.104 201.5,-252.104 198,-262.104 205,-262.104"/>
</g>
<!-- 7 -->
<g id="node8" class="node"><title>7</title>
<path fill="none" stroke="#56d89a" stroke-width="2" d="M394.5,-324C394.5,-324 342.5,-324 342.5,-324 336.5,-324 330.5,-318 330.5,-312 330.5,-312 330.5,-300 330.5,-300 330.5,-294 336.5,-288 342.5,-288 342.5,-288 394.5,-288 394.5,-288 400.5,-288 406.5,-294 406.5,-300 406.5,-300 406.5,-312 406.5,-312 406.5,-318 400.5,-324 394.5,-324"/>
<text text-anchor="middle" x="368.5" y="-303.5" font-family="sans" font-size="10.00">merge_seqz</text>
</g>
<!-- 7&#45;&gt;5 -->
<g id="edge7" class="edge"><title>7&#45;&gt;5</title>
<path fill="none" stroke="grey" stroke-width="2" d="M368.5,-287.697C368.5,-279.983 368.5,-270.712 368.5,-262.112"/>
<polygon fill="grey" stroke="grey" stroke-width="2" points="372,-262.104 368.5,-252.104 365,-262.104 372,-262.104"/>
</g>
<!-- 8 -->
<g id="node9" class="node"><title>8</title>
<path fill="none" stroke="#56b1d8" stroke-width="2" d="M117,-423C117,-423 12,-423 12,-423 6,-423 0,-417 0,-411 0,-411 0,-372 0,-372 0,-366 6,-360 12,-360 12,-360 117,-360 117,-360 123,-360 129,-366 129,-372 129,-372 129,-411 129,-411 129,-417 123,-423 117,-423"/>
<text text-anchor="middle" x="64.5" y="-411" font-family="sans" font-size="10.00">run_bam2seqz_per_chr</text>
<text text-anchor="middle" x="64.5" y="-400" font-family="sans" font-size="10.00">chr: chr1</text>
<text text-anchor="middle" x="64.5" y="-389" font-family="sans" font-size="10.00">normal: N</text>
<text text-anchor="middle" x="64.5" y="-378" font-family="sans" font-size="10.00">patient_id: 201022</text>
<text text-anchor="middle" x="64.5" y="-367" font-family="sans" font-size="10.00">tumour: T</text>
</g>
<!-- 8&#45;&gt;6 -->
<g id="edge8" class="edge"><title>8&#45;&gt;6</title>
<path fill="none" stroke="grey" stroke-width="2" d="M114.736,-359.882C131.334,-349.766 149.475,-338.709 164.858,-329.333"/>
<polygon fill="grey" stroke="grey" stroke-width="2" points="166.847,-332.22 173.564,-324.026 163.204,-326.242 166.847,-332.22"/>
</g>
<!-- 9 -->
<g id="node10" class="node"><title>9</title>
<path fill="none" stroke="#56b1d8" stroke-width="2" d="M264,-423C264,-423 159,-423 159,-423 153,-423 147,-417 147,-411 147,-411 147,-372 147,-372 147,-366 153,-360 159,-360 159,-360 264,-360 264,-360 270,-360 276,-366 276,-372 276,-372 276,-411 276,-411 276,-417 270,-423 264,-423"/>
<text text-anchor="middle" x="211.5" y="-411" font-family="sans" font-size="10.00">run_bam2seqz_per_chr</text>
<text text-anchor="middle" x="211.5" y="-400" font-family="sans" font-size="10.00">chr: chr2</text>
<text text-anchor="middle" x="211.5" y="-389" font-family="sans" font-size="10.00">normal: N</text>
<text text-anchor="middle" x="211.5" y="-378" font-family="sans" font-size="10.00">patient_id: 201022</text>
<text text-anchor="middle" x="211.5" y="-367" font-family="sans" font-size="10.00">tumour: T</text>
</g>
<!-- 9&#45;&gt;6 -->
<g id="edge9" class="edge"><title>9&#45;&gt;6</title>
<path fill="none" stroke="grey" stroke-width="2" d="M207.833,-359.882C206.825,-351.467 205.74,-342.402 204.757,-334.195"/>
<polygon fill="grey" stroke="grey" stroke-width="2" points="208.203,-333.539 203.539,-324.026 201.253,-334.372 208.203,-333.539"/>
</g>
<!-- 10 -->
<g id="node11" class="node"><title>10</title>
<path fill="none" stroke="#56b1d8" stroke-width="2" d="M411,-423C411,-423 306,-423 306,-423 300,-423 294,-417 294,-411 294,-411 294,-372 294,-372 294,-366 300,-360 306,-360 306,-360 411,-360 411,-360 417,-360 423,-366 423,-372 423,-372 423,-411 423,-411 423,-417 417,-423 411,-423"/>
<text text-anchor="middle" x="358.5" y="-411" font-family="sans" font-size="10.00">run_bam2seqz_per_chr</text>
<text text-anchor="middle" x="358.5" y="-400" font-family="sans" font-size="10.00">chr: chr2</text>
<text text-anchor="middle" x="358.5" y="-389" font-family="sans" font-size="10.00">normal: N</text>
<text text-anchor="middle" x="358.5" y="-378" font-family="sans" font-size="10.00">patient_id: 101022</text>
<text text-anchor="middle" x="358.5" y="-367" font-family="sans" font-size="10.00">tumour: T</text>
</g>
<!-- 10&#45;&gt;7 -->
<g id="edge10" class="edge"><title>10&#45;&gt;7</title>
<path fill="none" stroke="grey" stroke-width="2" d="M362.167,-359.882C363.175,-351.467 364.26,-342.402 365.243,-334.195"/>
<polygon fill="grey" stroke="grey" stroke-width="2" points="368.747,-334.372 366.461,-324.026 361.797,-333.539 368.747,-334.372"/>
</g>
<!-- 11 -->
<g id="node12" class="node"><title>11</title>
<path fill="none" stroke="#56b1d8" stroke-width="2" d="M558,-423C558,-423 453,-423 453,-423 447,-423 441,-417 441,-411 441,-411 441,-372 441,-372 441,-366 447,-360 453,-360 453,-360 558,-360 558,-360 564,-360 570,-366 570,-372 570,-372 570,-411 570,-411 570,-417 564,-423 558,-423"/>
<text text-anchor="middle" x="505.5" y="-411" font-family="sans" font-size="10.00">run_bam2seqz_per_chr</text>
<text text-anchor="middle" x="505.5" y="-400" font-family="sans" font-size="10.00">chr: chr1</text>
<text text-anchor="middle" x="505.5" y="-389" font-family="sans" font-size="10.00">normal: N</text>
<text text-anchor="middle" x="505.5" y="-378" font-family="sans" font-size="10.00">patient_id: 101022</text>
<text text-anchor="middle" x="505.5" y="-367" font-family="sans" font-size="10.00">tumour: T</text>
</g>
<!-- 11&#45;&gt;7 -->
<g id="edge11" class="edge"><title>11&#45;&gt;7</title>
<path fill="none" stroke="grey" stroke-width="2" d="M455.264,-359.882C438.666,-349.766 420.525,-338.709 405.142,-329.333"/>
<polygon fill="grey" stroke="grey" stroke-width="2" points="406.796,-326.242 396.436,-324.026 403.153,-332.22 406.796,-326.242"/>
</g>
<!-- 12 -->
<g id="node13" class="node"><title>12</title>
<path fill="none" stroke="#5682d8" stroke-width="2" d="M202,-495C202,-495 97,-495 97,-495 91,-495 85,-489 85,-483 85,-483 85,-471 85,-471 85,-465 91,-459 97,-459 97,-459 202,-459 202,-459 208,-459 214,-465 214,-471 214,-471 214,-483 214,-483 214,-489 208,-495 202,-495"/>
<text text-anchor="middle" x="149.5" y="-474.5" font-family="sans" font-size="10.00">get_genome_reference</text>
</g>
<!-- 12&#45;&gt;8 -->
<g id="edge12" class="edge"><title>12&#45;&gt;8</title>
<path fill="none" stroke="grey" stroke-width="2" d="M131.888,-458.699C123.514,-450.473 113.15,-440.292 103.082,-430.401"/>
<polygon fill="grey" stroke="grey" stroke-width="2" points="105.422,-427.794 95.8359,-423.283 100.517,-432.788 105.422,-427.794"/>
</g>
<!-- 12&#45;&gt;9 -->
<g id="edge15" class="edge"><title>12&#45;&gt;9</title>
<path fill="none" stroke="grey" stroke-width="2" d="M162.346,-458.699C168.217,-450.792 175.429,-441.08 182.501,-431.555"/>
<polygon fill="grey" stroke="grey" stroke-width="2" points="185.492,-433.398 188.643,-423.283 179.872,-429.225 185.492,-433.398"/>
</g>
<!-- 12&#45;&gt;10 -->
<g id="edge18" class="edge"><title>12&#45;&gt;10</title>
<path fill="none" stroke="grey" stroke-width="2" d="M193.655,-458.881C220.059,-448.591 254.25,-435.171 284.5,-423 284.597,-422.961 284.693,-422.922 284.79,-422.883"/>
<polygon fill="grey" stroke="grey" stroke-width="2" points="285.993,-426.172 293.952,-419.179 283.369,-419.682 285.993,-426.172"/>
</g>
<!-- 12&#45;&gt;11 -->
<g id="edge21" class="edge"><title>12&#45;&gt;11</title>
<path fill="none" stroke="grey" stroke-width="2" d="M214.335,-460.692C217.091,-460.108 219.821,-459.541 222.5,-459 312.239,-440.876 339.75,-448.843 431.238,-423.152"/>
<polygon fill="grey" stroke="grey" stroke-width="2" points="432.247,-426.504 440.895,-420.383 430.318,-419.775 432.247,-426.504"/>
</g>
<!-- 13 -->
<g id="node14" class="node"><title>13</title>
<path fill="none" stroke="#d8b456" stroke-width="2" d="M339,-495C339,-495 244,-495 244,-495 238,-495 232,-489 232,-483 232,-483 232,-471 232,-471 232,-465 238,-459 244,-459 244,-459 339,-459 339,-459 345,-459 351,-465 351,-471 351,-471 351,-483 351,-483 351,-489 345,-495 339,-495"/>
<text text-anchor="middle" x="291.5" y="-474.5" font-family="sans" font-size="10.00">get_dbsnp_reference</text>
</g>
<!-- 13&#45;&gt;8 -->
<g id="edge13" class="edge"><title>13&#45;&gt;8</title>
<path fill="none" stroke="grey" stroke-width="2" d="M239.164,-458.918C211.564,-449.696 176.974,-437.806 139.013,-423.511"/>
<polygon fill="grey" stroke="grey" stroke-width="2" points="139.883,-420.097 129.292,-419.825 137.401,-426.643 139.883,-420.097"/>
</g>
<!-- 13&#45;&gt;9 -->
<g id="edge16" class="edge"><title>13&#45;&gt;9</title>
<path fill="none" stroke="grey" stroke-width="2" d="M274.924,-458.699C267.119,-450.553 257.478,-440.489 248.089,-430.689"/>
<polygon fill="grey" stroke="grey" stroke-width="2" points="250.438,-428.082 240.993,-423.283 245.383,-432.925 250.438,-428.082"/>
</g>
<!-- 13&#45;&gt;10 -->
<g id="edge19" class="edge"><title>13&#45;&gt;10</title>
<path fill="none" stroke="grey" stroke-width="2" d="M305.382,-458.699C311.791,-450.712 319.678,-440.883 327.394,-431.266"/>
<polygon fill="grey" stroke="grey" stroke-width="2" points="330.271,-433.273 333.8,-423.283 324.812,-428.892 330.271,-433.273"/>
</g>
<!-- 13&#45;&gt;11 -->
<g id="edge22" class="edge"><title>13&#45;&gt;11</title>
<path fill="none" stroke="grey" stroke-width="2" d="M338.021,-458.995C363.323,-449.637 395.362,-437.61 431.026,-423.548"/>
<polygon fill="grey" stroke="grey" stroke-width="2" points="432.661,-426.664 440.671,-419.729 430.085,-420.156 432.661,-426.664"/>
</g>
<!-- 14 -->
<g id="node15" class="node"><title>14</title>
<path fill="none" stroke="#70d856" stroke-width="2" d="M458,-495C458,-495 381,-495 381,-495 375,-495 369,-489 369,-483 369,-483 369,-471 369,-471 369,-465 375,-459 381,-459 381,-459 458,-459 458,-459 464,-459 470,-465 470,-471 470,-471 470,-483 470,-483 470,-489 464,-495 458,-495"/>
<text text-anchor="middle" x="419.5" y="-474.5" font-family="sans" font-size="10.00">get_gc_reference</text>
</g>
<!-- 14&#45;&gt;8 -->
<g id="edge14" class="edge"><title>14&#45;&gt;8</title>
<path fill="none" stroke="grey" stroke-width="2" d="M368.866,-461.21C365.706,-460.425 362.565,-459.68 359.5,-459 265.064,-438.038 235.507,-449.647 138.968,-423.188"/>
<polygon fill="grey" stroke="grey" stroke-width="2" points="139.669,-419.749 129.096,-420.415 137.777,-426.489 139.669,-419.749"/>
</g>
<!-- 14&#45;&gt;9 -->
<g id="edge17" class="edge"><title>14&#45;&gt;9</title>
<path fill="none" stroke="grey" stroke-width="2" d="M375.324,-458.935C351.079,-449.505 320.278,-437.424 285.705,-423.466"/>
<polygon fill="grey" stroke="grey" stroke-width="2" points="286.931,-420.187 276.349,-419.68 284.306,-426.676 286.931,-420.187"/>
</g>
<!-- 14&#45;&gt;10 -->
<g id="edge20" class="edge"><title>14&#45;&gt;10</title>
<path fill="none" stroke="grey" stroke-width="2" d="M406.861,-458.699C401.085,-450.792 393.989,-441.08 387.031,-431.555"/>
<polygon fill="grey" stroke="grey" stroke-width="2" points="389.713,-429.293 380.988,-423.283 384.061,-433.422 389.713,-429.293"/>
</g>
<!-- 14&#45;&gt;11 -->
<g id="edge23" class="edge"><title>14&#45;&gt;11</title>
<path fill="none" stroke="grey" stroke-width="2" d="M437.319,-458.699C445.791,-450.473 456.277,-440.292 466.464,-430.401"/>
<polygon fill="grey" stroke="grey" stroke-width="2" points="469.059,-432.76 473.795,-423.283 464.183,-427.738 469.059,-432.76"/>
</g>
</g>
</svg>
